<?xml version="1.0" encoding="utf-8"?>
<!-- Generator: Adobe Illustrator 26.1.0, SVG Export Plug-In . SVG Version: 6.00 Build 0)  -->
<svg version="1.1" xmlns="http://www.w3.org/2000/svg" xmlns:xlink="http://www.w3.org/1999/xlink" x="0px" y="0px"
	 viewBox="0 0 85.04 85.04" style="enable-background:new 0 0 85.04 85.04;" xml:space="preserve">
<style type="text/css">
	.st0{fill:none;stroke:#FFFFFF;stroke-width:3.4528;stroke-linecap:round;stroke-linejoin:round;stroke-miterlimit:10;}
</style>
<g id="bild">
</g>
<g id="Lager_2">
	<path class="st0" d="M41.8,31.82c-0.2-0.76-1.62-1.59-2.06-2.03c-1.13-1.13-2.14-2.38-3.18-3.59c-1.43-1.67-2.84-3.15-4.44-4.63
		c-1.06-0.99-2.19-1.32-3.62-1.53c-2.58-0.38-5.51-0.24-8.11-0.12c-1.19,2.89-2.98,5.12-3.39,8.25c-0.33,2.48-0.63,4.73-0.4,7.24
		c0.18,1.97,0.26,3.97,1.15,5.76c0.93,1.85,2.07,3.57,3.01,5.42c0.8,1.56,1.32,3.24,2.14,4.78c0.76,1.4,1.8,2.6,2.85,3.8
		c1.92,2.21,3.87,4.52,5.63,6.87c1.63,2.18,3.91,3.86,5.71,5.81c1.28,1.39,2.7,2.94,4.21,4.08c0.49,0.65,1.1,0.9,1.83,0.75
		c0.9-0.88,1.66-1.88,2.28-2.98c1.11-1.77,2.7-3.15,3.93-4.78c1.2-1.59,3.13-2.57,4.4-4.18c0.86-1.08,1.63-2.21,2.54-3.26
		c0.77-0.89,1.62-1.77,2.33-2.73c0.91-1.3,1.74-2.64,2.48-4.04c0.55-0.74,1.13-1.46,1.73-2.15c1.78-2.67,2.26-5.96,3.12-8.99
		c0.49-1.71,0.36-3.33,0.35-5.1c0-0.95,0.13-2.04-0.06-2.99c-0.25-1.24-1.21-2.09-1.95-3.05c-0.82-1.06-1.49-2.71-2.63-3.46
		c-0.16-0.11-0.87-0.32-1.07-0.38c-1.43-0.43-3.26-0.4-4.75-0.39c-2.62,0.02-5.25-0.16-7.84,0.37c-1,0.21-2.67,0.44-3.64,0.93
		c-1.34,0.67-1.35,2.79-1.61,4.04C42.44,30.96,41.72,32.23,41.8,31.82z"/>
</g>
</svg>
